<svg width="65" height="16" viewBox="0 0 65 16" fill="none" xmlns="http://www.w3.org/2000/svg">
<path d="M12.5781 13.2031C12.3503 13.4701 12.002 13.7598 11.5332 14.0723C11.071 14.3783 10.472 14.6419 9.73633 14.8633C9.00716 15.0846 8.12174 15.1953 7.08008 15.1953C5.84961 15.1953 4.76888 14.9284 3.83789 14.3945C2.9069 13.8542 2.18099 13.0697 1.66016 12.041C1.14583 11.0124 0.888672 9.76562 0.888672 8.30078V7.49023C0.888672 6.01888 1.13607 4.76888 1.63086 3.74023C2.13216 2.71159 2.83203 1.92708 3.73047 1.38672C4.62891 0.846354 5.67708 0.576172 6.875 0.576172C8.13151 0.576172 9.16016 0.78125 9.96094 1.19141C10.7617 1.59505 11.3704 2.15495 11.7871 2.87109C12.2103 3.58724 12.4707 4.41081 12.5684 5.3418H9.58984C9.52474 4.86654 9.39128 4.45964 9.18945 4.12109C8.99414 3.77604 8.71745 3.51237 8.35938 3.33008C8.0013 3.14128 7.53581 3.04688 6.96289 3.04688C6.33138 3.04688 5.79427 3.21289 5.35156 3.54492C4.90885 3.87695 4.57031 4.37174 4.33594 5.0293C4.10807 5.68034 3.99414 6.49414 3.99414 7.4707V8.30078C3.99414 9.27083 4.11784 10.0846 4.36523 10.7422C4.61263 11.3997 4.97721 11.8945 5.45898 12.2266C5.94727 12.5586 6.54948 12.7246 7.26562 12.7246C7.70833 12.7246 8.07617 12.6888 8.36914 12.6172C8.66211 12.5456 8.89974 12.4609 9.08203 12.3633C9.26432 12.2591 9.4043 12.1615 9.50195 12.0703V9.70703H6.92383V7.4707H12.5781V13.2031ZM20.0293 0.78125C21.0124 0.78125 21.8652 0.940755 22.5879 1.25977C23.3105 1.57878 23.8672 2.05078 24.2578 2.67578C24.6549 3.29427 24.8535 4.05599 24.8535 4.96094C24.8535 5.63151 24.7135 6.24023 24.4336 6.78711C24.1536 7.33398 23.763 7.79297 23.2617 8.16406C22.7669 8.52865 22.194 8.7793 21.543 8.91602L21.123 9.07227H16.1914L16.1719 8.05664H20.293C21.0417 8.05664 21.6634 7.91341 22.1582 7.62695C22.653 7.33398 23.0241 6.95312 23.2715 6.48438C23.5254 6.00911 23.6523 5.5013 23.6523 4.96094C23.6523 3.99089 23.3398 3.22266 22.7148 2.65625C22.0964 2.08984 21.2012 1.80664 20.0293 1.80664H16.6113V15H15.4102V0.78125H20.0293ZM20.5078 8.64258L21.7969 8.63281L25.4688 14.873V15H24.1797L20.5078 8.64258ZM38.6523 8.65234C38.6523 9.98047 38.4245 11.1361 37.9688 12.1191C37.5195 13.0957 36.8815 13.8542 36.0547 14.3945C35.2279 14.9284 34.2513 15.1953 33.125 15.1953C32.0247 15.1953 31.0579 14.9284 30.2246 14.3945C29.3913 13.8542 28.7402 13.0957 28.2715 12.1191C27.8092 11.1361 27.5781 9.98047 27.5781 8.65234V7.12891C27.5781 5.80078 27.8092 4.64844 28.2715 3.67188C28.7337 2.6888 29.3783 1.93034 30.2051 1.39648C31.0384 0.85612 32.0052 0.585938 33.1055 0.585938C34.2318 0.585938 35.2083 0.85612 36.0352 1.39648C36.8685 1.93034 37.513 2.6888 37.9688 3.67188C38.4245 4.64844 38.6523 5.80078 38.6523 7.12891V8.65234ZM37.4609 7.10938C37.4609 5.98958 37.2884 5.02279 36.9434 4.20898C36.5983 3.38867 36.1003 2.75716 35.4492 2.31445C34.8047 1.86523 34.0234 1.64062 33.1055 1.64062C32.2135 1.64062 31.4421 1.86523 30.791 2.31445C30.1465 2.75716 29.6484 3.38867 29.2969 4.20898C28.9518 5.02279 28.7793 5.98958 28.7793 7.10938V8.65234C28.7793 9.77865 28.9551 10.752 29.3066 11.5723C29.6582 12.3926 30.1595 13.0273 30.8105 13.4766C31.4616 13.9258 32.2331 14.1504 33.125 14.1504C34.0495 14.1504 34.834 13.9258 35.4785 13.4766C36.123 13.0273 36.6146 12.3926 36.9531 11.5723C37.2917 10.752 37.4609 9.77865 37.4609 8.65234V7.10938ZM52.207 8.65234C52.207 9.98047 51.9792 11.1361 51.5234 12.1191C51.0742 13.0957 50.4362 13.8542 49.6094 14.3945C48.7826 14.9284 47.806 15.1953 46.6797 15.1953C45.5794 15.1953 44.6126 14.9284 43.7793 14.3945C42.946 13.8542 42.2949 13.0957 41.8262 12.1191C41.3639 11.1361 41.1328 9.98047 41.1328 8.65234V7.12891C41.1328 5.80078 41.3639 4.64844 41.8262 3.67188C42.2884 2.6888 42.9329 1.93034 43.7598 1.39648C44.5931 0.85612 45.5599 0.585938 46.6602 0.585938C47.7865 0.585938 48.763 0.85612 49.5898 1.39648C50.4232 1.93034 51.0677 2.6888 51.5234 3.67188C51.9792 4.64844 52.207 5.80078 52.207 7.12891V8.65234ZM51.0156 7.10938C51.0156 5.98958 50.8431 5.02279 50.498 4.20898C50.153 3.38867 49.6549 2.75716 49.0039 2.31445C48.3594 1.86523 47.5781 1.64062 46.6602 1.64062C45.7682 1.64062 44.9967 1.86523 44.3457 2.31445C43.7012 2.75716 43.2031 3.38867 42.8516 4.20898C42.5065 5.02279 42.334 5.98958 42.334 7.10938V8.65234C42.334 9.77865 42.5098 10.752 42.8613 11.5723C43.2129 12.3926 43.7142 13.0273 44.3652 13.4766C45.0163 13.9258 45.7878 14.1504 46.6797 14.1504C47.6042 14.1504 48.3887 13.9258 49.0332 13.4766C49.6777 13.0273 50.1693 12.3926 50.5078 11.5723C50.8464 10.752 51.0156 9.77865 51.0156 8.65234V7.10938ZM59.502 15H58.3105V0.78125H59.502V15ZM64.375 1.80664H53.4473V0.78125H64.375V1.80664Z" fill="white"/>
</svg>
