<svg width="55" height="43" viewBox="0 0 55 43" fill="none" xmlns="http://www.w3.org/2000/svg">
<path d="M16.3337 22.6917L13.0134 32.9648C11.9575 36.2293 9.49978 38.8543 6.31336 40.1222L0 42.6356L9.93109 11.924L16.3337 22.6917Z" fill="#F7941D"/>
<path d="M32.883 32.1431L31.0686 35.1325C29.388 37.9062 25.3575 37.8876 23.6993 35.099L21.9146 32.0948L16.33 22.6917L9.92737 11.924L13.7868 0L20.1856 10.7714L27.4434 22.9854L32.883 32.1431Z" fill="#FBB040"/>
<path d="M54.738 43L47.2349 39.7206C44.7512 38.6349 42.8623 36.5267 42.0518 33.9426L38.5642 22.7957L45.0672 12.0838L54.7417 42.9962L54.738 43Z" fill="#F48B00"/>
<path d="M45.0598 12.0876L38.5605 22.7958L32.883 32.1431L27.4434 22.9854L34.8164 10.8383L41.3194 0.130127L45.0598 12.0876Z" fill="#F49D00"/>
<path d="M11.9352 28.7931C8.9235 27.1682 7.0979 23.2493 7.93076 20.4682C9.38454 15.6012 18.7319 15.0509 19.271 10.024C19.3602 9.19116 19.1818 8.51074 19.4383 8.42151C19.561 8.37689 19.7692 8.481 20.0258 8.71152C19.9886 8.70408 19.9589 8.7078 19.9328 8.71524C19.6763 8.80447 19.8548 9.48861 19.7655 10.3177C19.2301 15.3484 9.88277 15.8986 8.42527 20.7619C7.64075 23.3869 9.22838 27.027 11.9389 28.7931H11.9352Z" fill="white"/>
</svg>
